<?xml version="1.0" encoding="utf-8"?>
<!-- Generator: Adobe Illustrator 27.1.1, SVG Export Plug-In . SVG Version: 6.00 Build 0)  -->
<svg version="1.1" id="Layer_1" xmlns="http://www.w3.org/2000/svg" xmlns:xlink="http://www.w3.org/1999/xlink" x="0px" y="0px"
	 viewBox="0 0 42.52 42.52" style="enable-background:new 0 0 42.52 42.52;" xml:space="preserve">
<style type="text/css">
	.st0{fill:#FFFFFF;}
</style>
<g>
	<rect width="42.52" height="42.52"/>
</g>
<g>
	<g>
		<path class="st0" d="M20.58,9.98v4.57H13.5v17.99H9.57V14.55H2.48V9.98H20.58z"/>
		<path class="st0" d="M33.45,9.98c0.78,0,1.5,0.14,2.16,0.43c0.66,0.29,1.24,0.69,1.72,1.22c0.48,0.53,0.86,1.16,1.12,1.9
			c0.26,0.73,0.39,1.56,0.39,2.49c0,0.82-0.11,1.56-0.33,2.22c-0.22,0.67-0.57,1.2-1.03,1.61c0.8,0.54,1.43,1.28,1.88,2.2
			c0.45,0.92,0.68,2.08,0.68,3.47c0,0.98-0.14,1.89-0.43,2.73c-0.28,0.84-0.68,1.58-1.2,2.22c-0.52,0.64-1.12,1.14-1.83,1.51
			c-0.7,0.37-1.47,0.55-2.29,0.55H22.22V9.98H33.45z M26.16,18.67h7.4c0.42,0,0.76-0.21,1.02-0.63c0.26-0.42,0.39-0.89,0.39-1.41
			c0-0.49-0.12-0.96-0.36-1.41c-0.24-0.45-0.7-0.67-1.37-0.67h-7.08V18.67z M26.16,27.97h8c0.63,0,1.12-0.23,1.48-0.68
			c0.36-0.45,0.54-1.04,0.54-1.75c0-0.74-0.18-1.33-0.54-1.77c-0.36-0.44-0.82-0.66-1.38-0.66h-8.09V27.97z"/>
	</g>
</g>
</svg>
