<?xml version="1.0" encoding="utf-8"?>
<!-- Generator: Adobe Illustrator 27.1.1, SVG Export Plug-In . SVG Version: 6.00 Build 0)  -->
<svg version="1.1" id="Layer_1" xmlns="http://www.w3.org/2000/svg" xmlns:xlink="http://www.w3.org/1999/xlink" x="0px" y="0px"
	 viewBox="0 0 18.14 14.96" style="enable-background:new 0 0 18.14 14.96;" xml:space="preserve">
<style type="text/css">
	.st0{fill:#FFFFFF;}
</style>
<g>
	<path class="st0" d="M18.1,0.32c-0.07-0.19-0.14-0.24-0.26-0.29c-0.27-0.1-0.71,0.05-0.71,0.05S1.23,5.8,0.32,6.43
		c-0.2,0.14-0.26,0.22-0.29,0.31c-0.16,0.45,0.33,0.65,0.33,0.65l4.1,1.33c0,0,0.15,0.02,0.21-0.01c0.93-0.59,9.37-5.92,9.86-6.1
		c0.08-0.02,0.13,0,0.12,0.06c-0.2,0.68-7.53,7.2-7.53,7.2S7.09,9.9,7.07,9.94H7.06L6.68,14c0,0-0.16,1.24,1.08,0
		c0.88-0.88,1.73-1.61,2.15-1.97c1.41,0.97,2.92,2.05,3.58,2.61c0.33,0.28,0.6,0.33,0.83,0.32c0.62-0.02,0.79-0.71,0.79-0.71
		S18.01,2.6,18.1,1.03c0.01-0.15,0.02-0.25,0.02-0.36C18.14,0.54,18.12,0.39,18.1,0.32z"/>
</g>
</svg>
