<?xml version="1.0" encoding="utf-8"?>
<!-- Generator: Adobe Illustrator 27.1.1, SVG Export Plug-In . SVG Version: 6.00 Build 0)  -->
<svg version="1.1" id="Layer_1" xmlns="http://www.w3.org/2000/svg" xmlns:xlink="http://www.w3.org/1999/xlink" x="0px" y="0px"
	 viewBox="0 0 130.04 18.26" style="enable-background:new 0 0 130.04 18.26;" xml:space="preserve">
<style type="text/css">
	.st0{fill:#FFFFFF;}
</style>
<g>
	<path class="st0" d="M18.1,0.41v3.53h-7.08v13.88H7.08V3.94H0V0.41H18.1z"/>
	<path class="st0" d="M39.25,9.13c0,1.36-0.26,2.61-0.79,3.73c-0.52,1.12-1.23,2.08-2.11,2.88s-1.92,1.42-3.1,1.86
		c-1.19,0.44-2.44,0.66-3.76,0.66s-2.58-0.22-3.76-0.66c-1.19-0.44-2.22-1.06-3.1-1.86c-0.88-0.8-1.58-1.76-2.11-2.88
		c-0.52-1.12-0.79-2.37-0.79-3.73s0.26-2.61,0.79-3.73c0.52-1.12,1.23-2.08,2.11-2.88c0.88-0.8,1.91-1.42,3.1-1.86
		C26.92,0.22,28.17,0,29.5,0s2.58,0.22,3.76,0.66c1.19,0.44,2.22,1.06,3.1,1.86c0.88,0.8,1.58,1.76,2.11,2.88
		C38.99,6.52,39.25,7.77,39.25,9.13z M23.67,9.13c0,0.9,0.15,1.71,0.46,2.42c0.3,0.71,0.71,1.32,1.23,1.81
		c0.51,0.49,1.13,0.87,1.84,1.13c0.71,0.26,1.48,0.39,2.3,0.39s1.58-0.13,2.3-0.39c0.71-0.26,1.33-0.64,1.84-1.13
		s0.92-1.1,1.23-1.81c0.3-0.71,0.46-1.52,0.46-2.42s-0.15-1.71-0.46-2.42C34.57,6,34.16,5.39,33.64,4.9
		c-0.51-0.49-1.13-0.87-1.84-1.13c-0.71-0.26-1.48-0.39-2.3-0.39s-1.58,0.13-2.3,0.39c-0.71,0.26-1.33,0.64-1.84,1.13
		S24.44,6,24.13,6.71C23.82,7.42,23.67,8.23,23.67,9.13z"/>
	<path class="st0" d="M53.38,0.41c0.78,0,1.5,0.11,2.16,0.33s1.24,0.54,1.72,0.94c0.48,0.41,0.86,0.9,1.12,1.46
		c0.26,0.57,0.39,1.21,0.39,1.92c0,0.63-0.11,1.2-0.33,1.72c-0.22,0.51-0.57,0.93-1.03,1.24c0.8,0.42,1.43,0.99,1.88,1.7
		s0.68,1.61,0.68,2.68c0,0.76-0.14,1.46-0.43,2.11c-0.28,0.65-0.68,1.22-1.2,1.72c-0.52,0.49-1.12,0.88-1.83,1.16
		c-0.7,0.28-1.47,0.42-2.29,0.42H42.15V0.41H53.38z M46.09,7.11h7.4c0.42,0,0.76-0.16,1.02-0.49c0.26-0.33,0.39-0.69,0.39-1.09
		c0-0.38-0.12-0.74-0.36-1.09c-0.24-0.35-0.7-0.52-1.37-0.52h-7.08C46.09,3.92,46.09,7.11,46.09,7.11z M46.09,14.29h8
		c0.63,0,1.12-0.17,1.48-0.52c0.36-0.35,0.54-0.8,0.54-1.35c0-0.57-0.18-1.03-0.54-1.36c-0.36-0.34-0.82-0.51-1.38-0.51H46.1
		L46.09,14.29L46.09,14.29z"/>
	<path class="st0" d="M66.48,0.41v17.41h-3.94V0.41H66.48z"/>
	<path class="st0" d="M80.86,0.41c0.78,0,1.5,0.11,2.16,0.33s1.24,0.54,1.72,0.94c0.48,0.41,0.86,0.9,1.12,1.46
		c0.26,0.57,0.39,1.21,0.39,1.92c0,0.63-0.11,1.2-0.33,1.72c-0.22,0.51-0.57,0.93-1.03,1.24c0.8,0.42,1.43,0.99,1.88,1.7
		s0.68,1.61,0.68,2.68c0,0.76-0.14,1.46-0.43,2.11c-0.28,0.65-0.68,1.22-1.2,1.72c-0.52,0.49-1.12,0.88-1.83,1.16
		c-0.7,0.28-1.47,0.42-2.29,0.42H69.63V0.41H80.86z M73.57,7.11h7.4c0.42,0,0.76-0.16,1.02-0.49c0.26-0.33,0.39-0.69,0.39-1.09
		c0-0.38-0.12-0.74-0.36-1.09c-0.24-0.35-0.7-0.52-1.37-0.52h-7.08C73.57,3.92,73.57,7.11,73.57,7.11z M73.57,14.29h8
		c0.63,0,1.12-0.17,1.48-0.52c0.36-0.35,0.54-0.8,0.54-1.35c0-0.57-0.18-1.03-0.54-1.36c-0.36-0.34-0.82-0.51-1.38-0.51h-8.09v3.74
		H73.57z"/>
	<path class="st0" d="M109.3,9.13c0,1.36-0.26,2.61-0.79,3.73c-0.52,1.12-1.23,2.08-2.11,2.88s-1.92,1.42-3.1,1.86
		c-1.19,0.44-2.44,0.66-3.76,0.66s-2.58-0.22-3.76-0.66c-1.19-0.44-2.22-1.06-3.1-1.86s-1.58-1.76-2.11-2.88
		c-0.52-1.12-0.79-2.37-0.79-3.73s0.26-2.61,0.79-3.73c0.52-1.12,1.23-2.08,2.11-2.88s1.91-1.42,3.1-1.86
		C96.96,0.22,98.21,0,99.54,0s2.58,0.22,3.76,0.66c1.19,0.44,2.22,1.06,3.1,1.86s1.58,1.76,2.11,2.88
		C109.03,6.52,109.3,7.77,109.3,9.13z M93.71,9.13c0,0.9,0.15,1.71,0.46,2.42c0.3,0.71,0.71,1.32,1.23,1.81
		c0.51,0.49,1.13,0.87,1.84,1.13s1.48,0.39,2.3,0.39s1.58-0.13,2.3-0.39c0.71-0.26,1.33-0.64,1.84-1.13
		c0.51-0.49,0.92-1.1,1.23-1.81c0.3-0.71,0.46-1.52,0.46-2.42s-0.15-1.71-0.46-2.42c-0.3-0.71-0.71-1.32-1.23-1.81
		c-0.51-0.49-1.13-0.87-1.84-1.13c-0.71-0.26-1.48-0.39-2.3-0.39s-1.58,0.13-2.3,0.39C96.53,4.02,95.91,4.4,95.4,4.9
		c-0.51,0.49-0.92,1.1-1.23,1.81C93.87,7.42,93.71,8.23,93.71,9.13z"/>
	<path class="st0" d="M114.99,0.41l4.56,6.7h1.1l4.56-6.7h4.47l-5.82,8.25l6.17,9.16h-4.56l-4.75-7.18h-1.23l-4.75,7.18h-4.56
		l6.2-9.07l-5.86-8.34C110.52,0.41,114.99,0.41,114.99,0.41z"/>
</g>
</svg>
