<?xml version="1.0" encoding="utf-8"?>
<!-- Generator: Adobe Illustrator 27.1.1, SVG Export Plug-In . SVG Version: 6.00 Build 0)  -->
<svg version="1.1" id="Layer_1" xmlns="http://www.w3.org/2000/svg" xmlns:xlink="http://www.w3.org/1999/xlink" x="0px" y="0px"
	 viewBox="0 0 28.01 17.62" style="enable-background:new 0 0 28.01 17.62;" xml:space="preserve">
<style type="text/css">
	.st0{fill:#FFFFFF;}
</style>
<g>
	<path class="st0" d="M10.99,15.57l-0.08,2.04H0c0.13-2.8,0.19-5.88,0.19-9.26C0.19,5.19,0.13,2.4,0,0h10.23l-0.11,2.02
		C7.64,1.91,5.01,1.85,2.23,1.85c0.05,1.4,0.08,3.29,0.08,5.67c2.4,0,4.54-0.05,6.41-0.16v2.02c-2-0.08-4.14-0.12-6.41-0.12
		c0,2.32,0.04,4.49,0.12,6.52C5.43,15.78,8.28,15.71,10.99,15.57z"/>
	<path class="st0" d="M28.01,17.62h-1.89c0-0.15-1.48-2.31-4.44-6.48C18.58,6.76,16.82,4,16.39,2.86h-0.13
		c0.16,2.17,0.24,4.04,0.24,5.59c0,3.03,0.07,6.09,0.2,9.17h-2.27c0.15-2.93,0.23-6.02,0.23-9.26c0-3.18-0.08-5.97-0.23-8.36h2.6
		c0,0.25,1.36,2.31,4.09,6.17c2.85,4.06,4.47,6.7,4.87,7.93h0.14c-0.15-2.2-0.23-4.07-0.23-5.6c0-3.34-0.06-6.17-0.19-8.5h2.31
		c-0.15,2.39-0.23,5.18-0.23,8.36C27.78,11.6,27.86,14.69,28.01,17.62z"/>
</g>
</svg>
