<?xml version="1.0" encoding="utf-8"?>
<!-- Generator: Adobe Illustrator 27.1.1, SVG Export Plug-In . SVG Version: 6.00 Build 0)  -->
<svg version="1.1" id="Layer_1" xmlns="http://www.w3.org/2000/svg" xmlns:xlink="http://www.w3.org/1999/xlink" x="0px" y="0px"
	 viewBox="0 0 130 18.3" style="enable-background:new 0 0 130 18.3;" xml:space="preserve">
<style type="text/css">
	.st0{fill:#0068FF;}
	.st1{fill:#FFE600;}
</style>
<g>
	<path class="st0" d="M18.1,0.4v3.5H11v13.9H7.1V3.9H0V0.4H18.1z"/>
	<path class="st0" d="M39.2,9.1c0,1.4-0.3,2.6-0.8,3.7c-0.5,1.1-1.2,2.1-2.1,2.9c-0.9,0.8-1.9,1.4-3.1,1.9c-1.2,0.4-2.4,0.7-3.8,0.7
		s-2.6-0.2-3.8-0.7c-1.2-0.4-2.2-1.1-3.1-1.9c-0.9-0.8-1.6-1.8-2.1-2.9c-0.5-1.1-0.8-2.4-0.8-3.7s0.3-2.6,0.8-3.7
		c0.5-1.1,1.2-2.1,2.1-2.9c0.9-0.8,1.9-1.4,3.1-1.9C26.9,0.2,28.2,0,29.5,0s2.6,0.2,3.8,0.7c1.2,0.4,2.2,1.1,3.1,1.9
		c0.9,0.8,1.6,1.8,2.1,2.9C39,6.5,39.2,7.8,39.2,9.1z M23.7,9.1c0,0.9,0.1,1.7,0.5,2.4c0.3,0.7,0.7,1.3,1.2,1.8
		c0.5,0.5,1.1,0.9,1.8,1.1c0.7,0.3,1.5,0.4,2.3,0.4s1.6-0.1,2.3-0.4c0.7-0.3,1.3-0.6,1.8-1.1s0.9-1.1,1.2-1.8
		c0.3-0.7,0.5-1.5,0.5-2.4s-0.2-1.7-0.5-2.4c-0.3-0.7-0.7-1.3-1.2-1.8c-0.5-0.5-1.1-0.9-1.8-1.1s-1.5-0.4-2.3-0.4s-1.6,0.1-2.3,0.4
		c-0.7,0.3-1.3,0.6-1.8,1.1S24.4,6,24.1,6.7C23.8,7.4,23.7,8.2,23.7,9.1z"/>
	<path class="st0" d="M53.4,0.4c0.8,0,1.5,0.1,2.2,0.3s1.2,0.5,1.7,0.9c0.5,0.4,0.9,0.9,1.1,1.5c0.3,0.6,0.4,1.2,0.4,1.9
		c0,0.6-0.1,1.2-0.3,1.7c-0.2,0.5-0.6,0.9-1,1.2c0.8,0.4,1.4,1,1.9,1.7s0.7,1.6,0.7,2.7c0,0.8-0.1,1.5-0.4,2.1
		c-0.3,0.6-0.7,1.2-1.2,1.7c-0.5,0.5-1.1,0.9-1.8,1.2c-0.7,0.3-1.5,0.4-2.3,0.4H42.2V0.4H53.4z M46.1,7.1h7.4c0.4,0,0.8-0.2,1-0.5
		c0.3-0.3,0.4-0.7,0.4-1.1c0-0.4-0.1-0.7-0.4-1.1c-0.2-0.3-0.7-0.5-1.4-0.5h-7.1C46.1,3.9,46.1,7.1,46.1,7.1z M46.1,14.3h8
		c0.6,0,1.1-0.2,1.5-0.5c0.4-0.4,0.5-0.8,0.5-1.4c0-0.6-0.2-1-0.5-1.4c-0.4-0.3-0.8-0.5-1.4-0.5h-8.1L46.1,14.3L46.1,14.3z"/>
	<path class="st0" d="M66.5,0.4v17.4h-3.9V0.4H66.5z"/>
	<path class="st1" d="M80.9,0.4c0.8,0,1.5,0.1,2.2,0.3s1.2,0.5,1.7,0.9c0.5,0.4,0.9,0.9,1.1,1.5c0.3,0.6,0.4,1.2,0.4,1.9
		c0,0.6-0.1,1.2-0.3,1.7c-0.2,0.5-0.6,0.9-1,1.2c0.8,0.4,1.4,1,1.9,1.7s0.7,1.6,0.7,2.7c0,0.8-0.1,1.5-0.4,2.1
		c-0.3,0.6-0.7,1.2-1.2,1.7c-0.5,0.5-1.1,0.9-1.8,1.2c-0.7,0.3-1.5,0.4-2.3,0.4H69.6V0.4H80.9z M73.6,7.1H81c0.4,0,0.8-0.2,1-0.5
		c0.3-0.3,0.4-0.7,0.4-1.1c0-0.4-0.1-0.7-0.4-1.1c-0.2-0.3-0.7-0.5-1.4-0.5h-7.1C73.6,3.9,73.6,7.1,73.6,7.1z M73.6,14.3h8
		c0.6,0,1.1-0.2,1.5-0.5c0.4-0.4,0.5-0.8,0.5-1.4c0-0.6-0.2-1-0.5-1.4c-0.4-0.3-0.8-0.5-1.4-0.5h-8.1L73.6,14.3L73.6,14.3z"/>
	<path class="st1" d="M109.3,9.1c0,1.4-0.3,2.6-0.8,3.7c-0.5,1.1-1.2,2.1-2.1,2.9c-0.9,0.8-1.9,1.4-3.1,1.9
		c-1.2,0.4-2.4,0.7-3.8,0.7S97,18,95.8,17.6c-1.2-0.4-2.2-1.1-3.1-1.9c-0.9-0.8-1.6-1.8-2.1-2.9c-0.5-1.1-0.8-2.4-0.8-3.7
		s0.3-2.6,0.8-3.7c0.5-1.1,1.2-2.1,2.1-2.9s1.9-1.4,3.1-1.9C97,0.2,98.2,0,99.5,0s2.6,0.2,3.8,0.7c1.2,0.4,2.2,1.1,3.1,1.9
		s1.6,1.8,2.1,2.9C109,6.5,109.3,7.8,109.3,9.1z M93.7,9.1c0,0.9,0.2,1.7,0.5,2.4c0.3,0.7,0.7,1.3,1.2,1.8c0.5,0.5,1.1,0.9,1.8,1.1
		s1.5,0.4,2.3,0.4s1.6-0.1,2.3-0.4c0.7-0.3,1.3-0.6,1.8-1.1c0.5-0.5,0.9-1.1,1.2-1.8c0.3-0.7,0.5-1.5,0.5-2.4s-0.2-1.7-0.5-2.4
		c-0.3-0.7-0.7-1.3-1.2-1.8c-0.5-0.5-1.1-0.9-1.8-1.1s-1.5-0.4-2.3-0.4S98,3.5,97.2,3.8c-0.7,0.2-1.3,0.6-1.8,1.1
		c-0.5,0.5-0.9,1.1-1.2,1.8C93.9,7.4,93.7,8.2,93.7,9.1z"/>
	<path class="st1" d="M115,0.4l4.6,6.7h1.1l4.6-6.7h4.5l-5.8,8.2l6.2,9.2h-4.6l-4.8-7.2h-1.2l-4.8,7.2h-4.6l6.2-9.1l-5.9-8.3
		C110.5,0.4,115,0.4,115,0.4z"/>
</g>
</svg>
