<?xml version="1.0" encoding="utf-8"?>
<!-- Generator: Adobe Illustrator 27.1.1, SVG Export Plug-In . SVG Version: 6.00 Build 0)  -->
<svg version="1.1" id="Layer_1" xmlns="http://www.w3.org/2000/svg" xmlns:xlink="http://www.w3.org/1999/xlink" x="0px" y="0px"
	 viewBox="0 0 33.33 17.98" style="enable-background:new 0 0 33.33 17.98;" xml:space="preserve">
<style type="text/css">
	.st0{fill:#FFFFFF;}
</style>
<g>
	<path class="st0" d="M14.42,0c-0.04,1.71-0.06,3.3-0.08,4.78c-0.02,1.48-0.03,2.86-0.03,4.14c0,6.04-2.39,9.07-7.16,9.07
		c-1.25,0-2.31-0.18-3.2-0.53c-0.89-0.36-1.62-0.9-2.19-1.64c-0.57-0.73-0.99-1.66-1.26-2.78c-0.27-1.12-0.4-2.44-0.4-3.96
		c0-1.33-0.01-2.75-0.03-4.26C0.06,3.31,0.04,1.71,0,0h2.57C2.46,3.44,2.41,6.13,2.41,8.08c0,1.57,0.08,2.85,0.23,3.84
		s0.43,1.81,0.82,2.47c0.39,0.66,0.89,1.13,1.48,1.4c0.59,0.28,1.35,0.41,2.27,0.41c0.96,0,1.75-0.14,2.35-0.41
		c0.6-0.27,1.1-0.73,1.47-1.37s0.65-1.45,0.81-2.45c0.16-1,0.24-2.3,0.24-3.92c0-0.96-0.02-2.1-0.05-3.43
		C12.02,3.29,11.97,1.75,11.91,0H14.42z"/>
	<path class="st0" d="M33.33,17.62h-2.86c0-0.6-0.57-2.5-1.7-5.7h-7.81c-1.12,3.15-1.68,5.05-1.68,5.7h-2.73
		c0-0.33,1.16-3.22,3.49-8.65c2.33-5.44,3.49-8.42,3.49-8.96h3.14c0,0.53,1.11,3.48,3.33,8.84C32.22,14.19,33.33,17.12,33.33,17.62z
		 M28.15,10.15c-2.12-5.3-3.18-8.11-3.18-8.44h-0.15c0,0.28-1.1,3.09-3.29,8.44H28.15z"/>
</g>
</svg>
