<?xml version="1.0" encoding="utf-8"?>
<!-- Generator: Adobe Illustrator 27.1.1, SVG Export Plug-In . SVG Version: 6.00 Build 0)  -->
<svg version="1.1" id="Layer_1" xmlns="http://www.w3.org/2000/svg" xmlns:xlink="http://www.w3.org/1999/xlink" x="0px" y="0px"
	 viewBox="0 0 16.69 18.22" style="enable-background:new 0 0 16.69 18.22;" xml:space="preserve">
<style type="text/css">
	.st0{fill:#FFFFFF;}
</style>
<g>
	<path class="st0" d="M8.35,9.9C5.62,9.9,3.4,7.68,3.4,4.95S5.61,0,8.35,0s4.95,2.22,4.95,4.95S11.08,9.9,8.35,9.9z M8.35,1
		C6.17,1,4.39,2.77,4.39,4.95S6.17,8.9,8.35,8.9s3.95-1.77,3.95-3.95S10.52,1,8.35,1z"/>
	<path class="st0" d="M14.49,18.22c-0.12,0-0.2-0.01-0.23-0.02l-5.92,0.01v-1h6c0.09,0.01,0.47,0.05,0.8-0.24
		c0.4-0.36,0.58-1.1,0.54-2.14C15.57,12,10.02,9.9,8.35,9.9v-1c2.08,0,8.2,2.31,8.34,5.88c0.05,1.38-0.25,2.37-0.89,2.94
		C15.32,18.15,14.79,18.22,14.49,18.22z"/>
	<path class="st0" d="M2.18,18.22c-0.26,0-0.8-0.06-1.29-0.5C0.24,17.15-0.06,16.16,0,14.78C0.15,11.21,6.26,8.9,8.35,8.9v1
		c-1.67,0-7.23,2.1-7.34,4.92c-0.04,1.04,0.15,1.78,0.54,2.14c0.33,0.3,0.71,0.25,0.72,0.25l6.07-0.01v1h-6
		C2.34,18.21,2.28,18.22,2.18,18.22z"/>
</g>
</svg>
