<?xml version="1.0" encoding="utf-8"?>
<!-- Generator: Adobe Illustrator 27.1.1, SVG Export Plug-In . SVG Version: 6.00 Build 0)  -->
<svg version="1.1" id="Layer_1" xmlns="http://www.w3.org/2000/svg" xmlns:xlink="http://www.w3.org/1999/xlink" x="0px" y="0px"
	 viewBox="0 0 134.3 23.2" style="enable-background:new 0 0 134.3 23.2;" xml:space="preserve">
<style type="text/css">
	.st0{fill:#FFFFFF;}
	.st1{fill:#EB0E03;}
	.st2{fill:#E6E6E6;}
</style>
<g>
	<path class="st0" d="M22.4,5.3v3.5h-7.1v13.9h-3.9V8.9H4.3V5.3H22.4z"/>
	<path class="st0" d="M43.5,14.1c0,1.4-0.3,2.6-0.8,3.7c-0.5,1.1-1.2,2.1-2.1,2.9c-0.9,0.8-1.9,1.4-3.1,1.9
		c-1.2,0.4-2.4,0.7-3.8,0.7S31.2,23,30,22.5c-1.2-0.4-2.2-1.1-3.1-1.9c-0.9-0.8-1.6-1.8-2.1-2.9c-0.5-1.1-0.8-2.4-0.8-3.7
		s0.3-2.6,0.8-3.7c0.5-1.1,1.2-2.1,2.1-2.9C27.8,6.6,28.8,6,30,5.6c1.2-0.4,2.4-0.7,3.8-0.7c1.3,0,2.6,0.2,3.8,0.7
		c1.2,0.4,2.2,1.1,3.1,1.9c0.9,0.8,1.6,1.8,2.1,2.9C43.3,11.4,43.5,12.7,43.5,14.1z M27.9,14.1c0,0.9,0.1,1.7,0.5,2.4
		c0.3,0.7,0.7,1.3,1.2,1.8c0.5,0.5,1.1,0.9,1.8,1.1c0.7,0.3,1.5,0.4,2.3,0.4s1.6-0.1,2.3-0.4c0.7-0.3,1.3-0.6,1.8-1.1
		s0.9-1.1,1.2-1.8c0.3-0.7,0.5-1.5,0.5-2.4s-0.2-1.7-0.5-2.4c-0.3-0.7-0.7-1.3-1.2-1.8c-0.5-0.5-1.1-0.9-1.8-1.1s-1.5-0.4-2.3-0.4
		s-1.6,0.1-2.3,0.4c-0.7,0.3-1.3,0.6-1.8,1.1c-0.5,0.5-0.9,1.1-1.2,1.8C28.1,12.3,27.9,13.2,27.9,14.1z"/>
	<path class="st0" d="M57.6,5.3c0.8,0,1.5,0.1,2.2,0.3c0.7,0.2,1.2,0.5,1.7,0.9C62,7,62.4,7.5,62.6,8.1C62.9,8.6,63,9.3,63,10
		c0,0.6-0.1,1.2-0.3,1.7c-0.2,0.5-0.6,0.9-1,1.2c0.8,0.4,1.4,1,1.9,1.7c0.5,0.7,0.7,1.6,0.7,2.7c0,0.8-0.1,1.5-0.4,2.1
		c-0.3,0.6-0.7,1.2-1.2,1.7c-0.5,0.5-1.1,0.9-1.8,1.2c-0.7,0.3-1.5,0.4-2.3,0.4H46.4V5.3H57.6z M50.4,12h7.4c0.4,0,0.8-0.2,1-0.5
		c0.3-0.3,0.4-0.7,0.4-1.1c0-0.4-0.1-0.7-0.4-1.1s-0.7-0.5-1.4-0.5h-7.1C50.4,8.8,50.4,12,50.4,12z M50.4,19.2h8
		c0.6,0,1.1-0.2,1.5-0.5c0.4-0.4,0.5-0.8,0.5-1.4c0-0.6-0.2-1-0.5-1.4c-0.4-0.3-0.8-0.5-1.4-0.5h-8.1L50.4,19.2L50.4,19.2z"/>
	<path class="st0" d="M70.7,5.3v17.4h-3.9V5.3H70.7z"/>
	<path class="st0" d="M85.1,5.3c0.8,0,1.5,0.1,2.2,0.3c0.7,0.2,1.2,0.5,1.7,0.9c0.5,0.4,0.9,0.9,1.1,1.5c0.3,0.6,0.4,1.2,0.4,1.9
		c0,0.6-0.1,1.2-0.3,1.7c-0.2,0.5-0.6,0.9-1,1.2c0.8,0.4,1.4,1,1.9,1.7s0.7,1.6,0.7,2.7c0,0.8-0.1,1.5-0.4,2.1
		c-0.3,0.6-0.7,1.2-1.2,1.7c-0.5,0.5-1.1,0.9-1.8,1.2c-0.7,0.3-1.5,0.4-2.3,0.4H73.9V5.3H85.1z M77.8,12h7.4c0.4,0,0.8-0.2,1-0.5
		c0.3-0.3,0.4-0.7,0.4-1.1c0-0.4-0.1-0.7-0.4-1.1s-0.7-0.5-1.4-0.5h-7.1C77.8,8.8,77.8,12,77.8,12z M77.8,19.2h8
		c0.6,0,1.1-0.2,1.5-0.5c0.4-0.4,0.5-0.8,0.5-1.4c0-0.6-0.2-1-0.5-1.4c-0.4-0.3-0.8-0.5-1.4-0.5h-8.1L77.8,19.2L77.8,19.2z"/>
	<path class="st0" d="M113.6,14.1c0,1.4-0.3,2.6-0.8,3.7c-0.5,1.1-1.2,2.1-2.1,2.9c-0.9,0.8-1.9,1.4-3.1,1.9
		c-1.2,0.4-2.4,0.7-3.8,0.7s-2.6-0.2-3.8-0.7c-1.2-0.4-2.2-1.1-3.1-1.9c-0.9-0.8-1.6-1.8-2.1-2.9c-0.5-1.1-0.8-2.4-0.8-3.7
		s0.3-2.6,0.8-3.7c0.5-1.1,1.2-2.1,2.1-2.9S98.9,6,100,5.6c1.2-0.4,2.4-0.7,3.8-0.7s2.6,0.2,3.8,0.7c1.2,0.4,2.2,1.1,3.1,1.9
		s1.6,1.8,2.1,2.9C113.3,11.4,113.6,12.7,113.6,14.1z M98,14.1c0,0.9,0.2,1.7,0.5,2.4c0.3,0.7,0.7,1.3,1.2,1.8
		c0.5,0.5,1.1,0.9,1.8,1.1s1.5,0.4,2.3,0.4s1.6-0.1,2.3-0.4c0.7-0.3,1.3-0.6,1.8-1.1c0.5-0.5,0.9-1.1,1.2-1.8
		c0.3-0.7,0.5-1.5,0.5-2.4s-0.2-1.7-0.5-2.4c-0.3-0.7-0.7-1.3-1.2-1.8c-0.5-0.5-1.1-0.9-1.8-1.1s-1.5-0.4-2.3-0.4s-1.6,0.1-2.3,0.4
		c-0.7,0.2-1.3,0.6-1.8,1.1c-0.5,0.5-0.9,1.1-1.2,1.8C98.1,12.3,98,13.2,98,14.1z"/>
	<path class="st0" d="M119.3,5.3l4.6,6.7h1.1l4.6-6.7h4.5l-5.8,8.2l6.2,9.2h-4.6l-4.8-7.2h-1.2l-4.8,7.2h-4.6l6.2-9.1l-5.9-8.3
		C114.8,5.3,119.3,5.3,119.3,5.3z"/>
</g>
<g>
	<path class="st1" d="M2,17.5c-0.3,0-0.6-0.1-0.9-0.3c0,0,0,0,0,0c0-0.1-0.1-0.1-0.1-0.1c-0.1-0.1-0.1-0.1-0.2-0.2
		c0,0-0.1-0.1-0.1-0.1c0,0,0,0,0,0l0,0c-0.1-0.1-0.1-0.3-0.2-0.4l0,0c0,0,0,0,0,0c0,0,0-0.1,0-0.1c0,0,0-0.1,0-0.1
		c0-0.1,0-0.1,0-0.2c0-0.1,0-0.1,0-0.2c0-0.1,0.1-0.2,0.1-0.3c0.1-0.1,0.1-0.2,0.2-0.2c0.1,0,0.1-0.1,0.2-0.1C1,15,1,15,1.1,15
		c0,0,0,0,0,0c0,0,0,0,0,0c0,0,0,0,0,0c0,0,0,0,0,0c0,0,0.1,0,0.1,0c0,0,0,0,0,0c0,0,0,0,0.1,0c0.1,0,0.3,0,0.4-0.1c0,0,0.1,0,0.1,0
		c0,0,0,0,0,0c-0.1-0.2-0.1-0.3-0.2-0.5c0-0.1-0.1-0.2-0.2-0.4c0-0.1-0.1-0.2-0.1-0.2c0,0,0-0.1,0-0.1c-0.1-0.1-0.1-0.2-0.2-0.3
		c0-0.1-0.1-0.2-0.2-0.3c0-0.1-0.1-0.2-0.2-0.4c0-0.1-0.1-0.2-0.1-0.2c0,0,0-0.1-0.1-0.1c-0.1-0.1-0.1-0.2-0.2-0.3
		c0-0.2-0.1-0.4-0.2-0.5c0,0,0-0.1,0-0.1c0-0.1-0.1-0.3-0.1-0.4c0-0.1,0-0.2-0.1-0.4c0,0,0-0.1,0-0.1c0-0.1,0-0.3,0-0.4c0,0,0,0,0,0
		c0-0.1,0-0.2,0-0.3c0,0,0-0.1,0-0.1c0-0.1,0-0.1,0-0.2c0-0.4,0-0.9,0-1.3C0,8,0,7.9,0,7.8c0,0,0,0,0,0c0,0,0,0,0-0.1
		c0-0.2,0-0.3,0-0.5c0,0,0,0,0,0c0-0.3,0-0.5,0.1-0.8c0,0,0-0.1,0-0.1c0,0,0,0,0,0c0-0.2,0-0.3,0-0.5c0-0.1,0-0.1,0-0.2
		c0-0.1,0-0.2,0-0.3c0-0.1,0-0.2,0-0.4c0-0.1,0-0.1,0-0.2c0-0.1,0.1-0.3,0.1-0.4l0,0c0,0,0-0.1,0-0.1c0,0,0,0,0,0
		C0.5,4.1,0.5,4.1,0.5,4c0-0.1,0.1-0.2,0.1-0.3c0-0.1,0.1-0.1,0.1-0.2c0-0.1,0.1-0.1,0.1-0.2c0.2-0.2,0.4-0.5,0.5-0.7c0,0,0,0,0,0
		c0.1-0.1,0.2-0.2,0.3-0.3l0,0l0,0c0,0,0,0,0,0c0,0,0,0,0,0C1.8,2.1,1.9,2.1,2,2c0,0,0.1-0.1,0.1-0.1c0.1-0.1,0.2-0.1,0.2-0.2
		c0,0,0.1-0.1,0.1-0.1c0.1-0.1,0.2-0.1,0.3-0.2c0,0,0.1,0,0.1-0.1C3,1,3.2,0.9,3.5,0.8c0.1,0,0.2,0,0.2-0.1c0.1,0,0.3,0,0.4,0
		c0.1,0,0.1,0,0.2,0c0.1,0,0.2,0,0.2,0c0.1,0,0.2,0,0.3,0c0.1,0,0.2,0,0.3-0.1c0,0,0.1,0,0.1,0c0.1,0,0.2-0.1,0.3-0.1
		c0.1,0,0.3-0.1,0.4-0.1c0.1,0,0.2,0,0.3,0c0.1,0,0.1,0,0.2,0c0,0,0,0,0,0c0,0,0,0,0.1,0c0.2,0,0.5,0,0.7,0c0.2,0,0.3,0,0.5,0
		c0,0,0,0,0,0c0.1,0,0.2,0,0.2,0c0.1,0,0.2,0,0.3,0c0.1,0.1,0.2,0,0.2,0c0.1,0,0.1,0,0.2,0c0.1,0,0.2,0,0.3,0.1
		c0.1,0,0.2,0.1,0.4,0.1c0,0,0.1,0,0.1,0c0.1,0,0.1,0.1,0.2,0.1c0.1,0,0.2,0.1,0.3,0.1c0.2,0.1,0.4,0.2,0.6,0.4c0,0,0,0,0.1,0
		c0,0,0,0,0,0c0.1,0.1,0.2,0.2,0.3,0.3c0,0,0,0,0,0c0,0.1,0.1,0.1,0.2,0.2c0.1,0.2,0.2,0.3,0.3,0.5c0,0.1,0.1,0.2,0.2,0.3
		c0,0,0,0.1,0.1,0.1C12,3,12.3,3.3,12.6,3.6c0,0,0.1,0,0.1,0.1c0.1,0.1,0.2,0.1,0.3,0c0,0,0.1-0.1,0.1-0.1c0.1,0,0.2-0.1,0.3-0.1
		l0,0c0,0,0,0,0,0c0.1,0,0.2,0,0.3,0c0.1,0,0.2,0.1,0.4,0.1c0.1,0,0.2,0.1,0.3,0.2c0,0,0.1,0.1,0.1,0.1c0.1,0,0.1,0.1,0.2,0.1
		C14.9,3.9,14.9,4,15,4c0,0.1,0.1,0.1,0.1,0.2c0.1,0.1,0.1,0.1,0.2,0.2c0,0.1,0.1,0.1,0.1,0.2c0,0.1,0.1,0.1,0.1,0.2
		c0.1,0.1,0.2,0.3,0.2,0.4c0,0.1,0,0.3-0.1,0.4c0,0.1-0.1,0.1-0.1,0.2c0,0-0.1,0.1-0.1,0.1c0,0,0,0,0,0l0,0c0,0,0,0,0,0
		c-0.1,0.1-0.1,0.1-0.2,0.2c-0.1,0.1-0.1,0.1-0.2,0.2c0,0-0.1,0.1-0.1,0.1c-0.1,0.1-0.2,0.2-0.2,0.3c0,0-0.1,0.1-0.1,0.1
		c-0.1,0.1-0.2,0.2-0.2,0.3c0,0-0.1,0.1-0.1,0.1c-0.1,0.1-0.2,0.2-0.3,0.3c0,0,0,0-0.1,0.1c-0.1,0.1-0.2,0.2-0.3,0.3
		c0,0-0.1,0.1-0.1,0.1c-0.2,0.2-0.4,0.4-0.6,0.6C13,8.4,13,8.4,13,8.5c-0.1,0.1-0.2,0.1-0.2,0.2c-0.1,0-0.1,0.1-0.2,0.1
		c-0.1,0-0.1,0.1-0.2,0.1c-0.1,0.1-0.2,0.1-0.3,0.2c0,0-0.1,0.1-0.1,0.1c-0.1,0.1-0.2,0.2-0.3,0.3c-0.1,0.1-0.2,0.2-0.3,0.2
		c-0.1,0-0.1,0-0.1,0.1c-0.1,0-0.1,0.1-0.2,0.1c-0.2,0.1-0.4,0.2-0.7,0.3c-0.2,0.1-0.5,0.2-0.7,0.4c-0.2,0.1-0.5,0.3-0.7,0.4
		c-0.1,0-0.1,0.1-0.2,0.1c-0.1,0-0.1,0.1-0.2,0.1c-0.1,0.1-0.2,0.1-0.3,0.2c0,0,0,0,0,0c-0.2,0.1-0.3,0.2-0.5,0.4
		c-0.1,0-0.1,0.1-0.2,0.1c-0.1,0-0.1,0.1-0.2,0.1c-0.1,0-0.1,0.1-0.2,0.1c-0.2,0.1-0.5,0.3-0.7,0.4c-0.1,0-0.2,0.1-0.3,0.1
		c-0.1,0-0.2,0-0.4-0.1c-0.3-0.2-0.5-0.3-0.7-0.6c-0.2-0.2-0.3-0.4-0.5-0.6c0,0,0,0-0.1-0.1c0,0,0,0,0,0c0,0,0,0,0,0
		c0,0,0-0.1-0.1-0.1c0-0.1-0.1-0.1-0.1-0.2c-0.1-0.2-0.2-0.3-0.4-0.5c0,0,0,0,0,0c0,0-0.1-0.1-0.1-0.1c0,0,0,0,0,0c0,0,0,0-0.1,0
		c0,0-0.1-0.1-0.2-0.1c0,0.4,0.1,0.8,0,1.3c0,0,0,0,0,0.1c0,0.2,0,0.3-0.1,0.5c0,0.1,0,0.2-0.1,0.3c0,0.1-0.1,0.3-0.1,0.4
		c-0.1,0.2-0.1,0.4-0.2,0.6c0,0.1-0.1,0.3-0.1,0.4c0,0.1-0.1,0.1-0.1,0.2c0,0.1-0.1,0.1-0.1,0.2C3,14.4,3,14.5,2.9,14.6
		c0,0.1-0.1,0.2-0.1,0.3c0,0-0.1,0.1,0,0.1c0.1,0.1,0.2,0.1,0.3,0.2c0,0,0.1,0.1,0.1,0.1c0.1,0.1,0.1,0.1,0.2,0.2
		c0,0,0.1,0.1,0.1,0.1c0,0.1,0.1,0.2,0.1,0.3c0,0.1,0.1,0.2,0,0.3c0,0.1,0,0.2-0.1,0.4c-0.2,0.4-0.5,0.6-0.9,0.7
		c-0.1,0-0.2,0-0.3,0.1c0,0-0.1,0-0.1,0C2.2,17.4,2.1,17.5,2,17.5z M7,12.1c0.7-0.4,1.4-1,2.1-1.4c0.4-0.3,0.9-0.6,1.4-0.8
		c0.2-0.1,0.4-0.2,0.6-0.3c0.4-0.3,0.8-0.6,1.2-0.9c0.2-0.2,0.4-0.4,0.7-0.6c0.2-0.2,0.5-0.4,0.7-0.6c0.3-0.3,0.6-0.6,0.9-1
		c0.3-0.3,0.6-0.6,0.8-1c0.2-0.1,0.3-0.3,0.2-0.6c-0.1-0.2-0.2-0.3-0.3-0.5c-0.3-0.3-0.6-0.5-1-0.7c-0.2-0.1-0.4-0.2-0.6-0.2
		c-0.2,0-0.4,0.1-0.5,0.3C13,3.9,13,4,12.9,4c-0.2,0.2-0.4,0.4-0.6,0.6c-0.2,0.2-0.4,0.4-0.6,0.5c-0.2,0.2-0.4,0.4-0.7,0.5
		c-0.3,0.3-0.6,0.5-0.9,0.7C9.8,6.6,9.5,6.9,9.2,7.1C8.8,7.4,8.4,7.6,8,7.8C7.7,8,7.4,8.1,7,8.2c-0.1,0-0.1,0-0.2,0.1
		c0,0-0.1,0-0.1,0c-0.2,0-0.4,0-0.6-0.1c-0.3,0-0.6,0.1-0.9,0.3C4.9,8.8,4.5,9,4.1,9.1C4,9.2,3.9,9.3,3.9,9.4c0,0.2-0.1,0.5-0.1,0.7
		c0,0.2,0.1,0.3,0.2,0.4c0.2,0.1,0.4,0.2,0.6,0.4C4.8,11.1,5,11.3,5,11.6c0.1,0.3,0.3,0.4,0.5,0.6c0.2,0.1,0.4,0.2,0.6,0.2
		c0.1,0,0.1,0,0.2,0C6.6,12.4,6.8,12.3,7,12.1z M1,15.3c-0.2,0.2-0.3,0.5-0.2,0.9c0.1,0.5,0.5,0.8,1,1c0.2,0.1,0.4,0.1,0.6,0.1
		c0.2,0,0.5,0,0.7-0.1c0.2-0.1,0.3-0.3,0.4-0.5c0.2-0.4,0.1-0.8-0.1-1.1c-0.3-0.3-0.6-0.5-1-0.6c-0.1,0-0.2,0-0.3,0
		C1.6,14.9,1.2,15,1,15.3z"/>
	<path class="st0" d="M12.9,4c-0.2,0.2-0.4,0.4-0.6,0.6c-0.2,0.2-0.4,0.4-0.6,0.5c-0.2,0.2-0.4,0.4-0.7,0.5
		c-0.3,0.3-0.6,0.5-0.9,0.7C9.8,6.6,9.5,6.9,9.2,7.1C8.8,7.4,8.4,7.6,8,7.8C7.7,8,7.4,8.1,7,8.2c-0.1,0-0.1,0-0.2,0.1
		C6.7,8.5,6.5,8.7,6.3,9C6.2,9.1,6.1,9.3,6.1,9.5c0,0.5,0,1.1,0,1.6c0,0.3,0.1,0.7,0.2,1c0,0.1,0.1,0.2,0,0.3c0.3,0,0.5-0.1,0.7-0.3
		c0.7-0.4,1.4-1,2.1-1.4c0.4-0.3,0.9-0.6,1.4-0.8c0.2-0.1,0.4-0.2,0.6-0.3c0.4-0.3,0.8-0.6,1.2-0.9c0.2-0.2,0.4-0.4,0.7-0.6
		c0.2-0.2,0.5-0.4,0.7-0.6c0.3-0.3,0.6-0.6,0.9-1c0.3-0.3,0.6-0.6,0.8-1c-0.1,0-0.1-0.1-0.2-0.2C15,5,14.6,4.7,14.2,4.5
		C13.8,4.2,13.4,4.1,12.9,4z"/>
	<path class="st2" d="M6.3,12.4c0-0.1,0-0.2,0-0.3c-0.1-0.3-0.2-0.6-0.2-1c0-0.5,0-1.1,0-1.6c0-0.2,0.1-0.4,0.2-0.6
		c0.2-0.2,0.4-0.4,0.5-0.7c0,0-0.1,0-0.1,0c-0.2,0-0.4,0-0.6-0.1c-0.3,0-0.6,0.1-0.9,0.3C4.9,8.8,4.5,9,4.1,9.1
		C4,9.2,3.9,9.3,3.9,9.4c0,0.2-0.1,0.5-0.1,0.7c0,0.2,0.1,0.3,0.2,0.4c0.2,0.1,0.4,0.2,0.6,0.4C4.8,11.1,5,11.3,5,11.6
		c0.1,0.3,0.3,0.4,0.5,0.6c0.2,0.1,0.4,0.2,0.6,0.2C6.2,12.4,6.3,12.4,6.3,12.4z"/>
	<path class="st0" d="M1.9,14.9c-0.4,0-0.7,0.1-1,0.4c-0.2,0.2-0.3,0.5-0.2,0.9c0.1,0.5,0.5,0.8,1,1c0.2,0.1,0.4,0.1,0.6,0.1
		c0.2,0,0.5,0,0.7-0.1c0.2-0.1,0.3-0.3,0.4-0.5c0.2-0.4,0.1-0.8-0.1-1.1c-0.3-0.3-0.6-0.5-1-0.6C2.2,14.9,2.1,14.9,1.9,14.9z"/>
	<path class="st2" d="M12.9,4c0.4,0.1,0.9,0.2,1.3,0.4C14.6,4.7,15,5,15.2,5.4c0,0.1,0.1,0.1,0.2,0.2c0.2-0.1,0.3-0.3,0.2-0.6
		c-0.1-0.2-0.2-0.3-0.3-0.5c-0.3-0.3-0.6-0.5-1-0.7c-0.2-0.1-0.4-0.2-0.6-0.2c-0.2,0-0.4,0.1-0.5,0.3C13,3.9,13,4,12.9,4z"/>
</g>
</svg>
