<?xml version="1.0" encoding="utf-8"?>
<!-- Generator: Adobe Illustrator 27.1.1, SVG Export Plug-In . SVG Version: 6.00 Build 0)  -->
<svg version="1.1" id="Layer_1" xmlns="http://www.w3.org/2000/svg" xmlns:xlink="http://www.w3.org/1999/xlink" x="0px" y="0px"
	 viewBox="0 0 14.96 14.96" style="enable-background:new 0 0 14.96 14.96;" xml:space="preserve">
<style type="text/css">
	.st0{fill:#FFFFFF;}
</style>
<g>
	<path class="st0" d="M7.48,1.35c2,0,2.23,0.01,3.02,0.04c0.73,0.03,1.13,0.16,1.39,0.26c0.35,0.14,0.6,0.3,0.86,0.56
		c0.26,0.26,0.42,0.51,0.56,0.86c0.1,0.26,0.22,0.66,0.26,1.39c0.04,0.79,0.04,1.03,0.04,3.02s-0.01,2.23-0.04,3.02
		c-0.03,0.73-0.16,1.13-0.26,1.39c-0.14,0.35-0.3,0.6-0.56,0.86c-0.26,0.26-0.51,0.42-0.86,0.56c-0.26,0.1-0.66,0.22-1.39,0.26
		c-0.79,0.04-1.03,0.04-3.02,0.04c-2,0-2.23-0.01-3.02-0.04c-0.73-0.03-1.13-0.16-1.39-0.26c-0.35-0.14-0.6-0.3-0.86-0.56
		s-0.42-0.51-0.56-0.86c-0.1-0.26-0.22-0.66-0.26-1.39C1.36,9.71,1.35,9.48,1.35,7.48s0.01-2.23,0.04-3.02
		c0.03-0.73,0.16-1.13,0.26-1.39c0.14-0.35,0.3-0.6,0.56-0.86c0.26-0.26,0.51-0.42,0.86-0.56c0.26-0.1,0.66-0.22,1.39-0.26
		C5.25,1.36,5.48,1.35,7.48,1.35 M7.48,0C5.45,0,5.19,0.01,4.4,0.05C3.6,0.08,3.06,0.21,2.58,0.39C2.09,0.58,1.67,0.84,1.26,1.26
		C0.84,1.67,0.58,2.09,0.39,2.58C0.21,3.06,0.08,3.6,0.05,4.4C0.01,5.19,0,5.45,0,7.48s0.01,2.29,0.05,3.08
		c0.04,0.8,0.16,1.34,0.35,1.82c0.19,0.49,0.45,0.91,0.86,1.32c0.42,0.42,0.83,0.67,1.32,0.86c0.48,0.18,1.02,0.31,1.82,0.35
		s1.05,0.05,3.08,0.05s2.29-0.01,3.08-0.05c0.8-0.04,1.34-0.16,1.82-0.35c0.49-0.19,0.91-0.45,1.32-0.86
		c0.42-0.42,0.67-0.83,0.86-1.32c0.18-0.48,0.31-1.02,0.35-1.82c0.04-0.8,0.05-1.05,0.05-3.08s-0.01-2.29-0.05-3.08
		c-0.04-0.8-0.16-1.34-0.35-1.82c-0.19-0.49-0.45-0.91-0.86-1.32c-0.42-0.42-0.83-0.67-1.32-0.86c-0.48-0.18-1.02-0.31-1.82-0.35
		C9.77,0.01,9.51,0,7.48,0L7.48,0z"/>
	<path class="st0" d="M7.48,3.64c-2.12,0-3.84,1.72-3.84,3.84s1.72,3.84,3.84,3.84s3.84-1.72,3.84-3.84S9.6,3.64,7.48,3.64z
		 M7.48,9.97c-1.38,0-2.49-1.12-2.49-2.49S6.1,4.99,7.48,4.99S9.97,6.1,9.97,7.48S8.86,9.97,7.48,9.97z"/>
	<circle class="st0" cx="11.47" cy="3.49" r="0.9"/>
</g>
</svg>
